<svg width="1921" height="808" viewBox="0 0 1921 808" fill="none" xmlns="http://www.w3.org/2000/svg">
<path d="M84.5 807C46.8006 795.6 35.2123 798.488 18 807H1V1H1920V790C1859.6 798.704 1824.65 801.94 1750.5 790L1767.5 723.5C1742.28 679.778 1724.29 667.101 1686.5 662L1605.5 679.5C1619.16 659.895 1617.99 646.684 1605.5 620.5C1382.9 600.963 1258.1 600.583 1035.5 620.5L1052.5 807H993.5C940.717 783.326 912.077 777.593 866 807C833.454 801.268 814.25 799.889 775 807C739.963 794.982 722.791 793.084 701 807C609.175 798.138 562.228 796.475 497 807C458.729 786.413 437.272 788.582 399 807H310.5C242.902 797.21 207.038 797.662 146 807H84.5Z" fill="black"/>
<path d="M1627.5 748L1605.5 763V790H1728.5L1750.5 723.5C1731.38 705.89 1717.26 696.263 1686.5 679.5C1649.38 688.891 1634.49 701.464 1627.5 748Z" fill="black"/>
<path d="M84.5 807C46.8006 795.6 35.2123 798.488 18 807H1V1H1920V790C1859.6 798.704 1824.65 801.94 1750.5 790L1767.5 723.5C1742.28 679.778 1724.29 667.101 1686.5 662L1605.5 679.5C1619.16 659.895 1617.99 646.684 1605.5 620.5C1382.9 600.963 1258.1 600.583 1035.5 620.5L1052.5 807H993.5C940.717 783.326 912.077 777.593 866 807C833.454 801.268 814.25 799.889 775 807C739.963 794.982 722.791 793.084 701 807C609.175 798.138 562.228 796.475 497 807C458.729 786.413 437.272 788.582 399 807H310.5C242.902 797.21 207.038 797.662 146 807H84.5Z" stroke="black"/>
<path d="M1627.5 748L1605.5 763V790H1728.5L1750.5 723.5C1731.38 705.89 1717.26 696.263 1686.5 679.5C1649.38 688.891 1634.49 701.464 1627.5 748Z" stroke="black"/>
</svg>
